<svg width="20" height="18" viewBox="0 0 20 18" fill="none" xmlns="http://www.w3.org/2000/svg">
    <path fill-rule="evenodd" clip-rule="evenodd" d="M2.32618 0L1.03302 1.29275L17.6738 17.9339L18.967 16.6408L2.32618 0V0Z" fill="black" />
    <path d="M3.76508 4.02481L4.98225 5.24198C3.64984 6.37647 2.58883 7.78864 1.90321 9.02418L1.90112 9.02836C3.8106 12.221 6.84037 15.2382 10.6643 14.7806C11.6965 14.657 12.6594 14.3042 13.5392 13.7993L14.7714 15.0311C13.0565 16.1318 11.0907 16.7147 8.96071 16.4266C5.12005 15.9071 1.97962 12.7571 0 9.05758C0.929475 7.18736 2.20093 5.39814 3.76508 4.02481V4.02481ZM6.53347 2.22097C7.60742 1.74246 8.76947 1.46102 10.0104 1.44098C10.0793 1.44056 10.8973 1.4794 11.2681 1.54036C11.5007 1.57878 11.7324 1.62679 11.9608 1.6865C15.604 2.6356 18.3031 5.71548 20 8.88848C19.2881 10.3261 18.3557 11.7291 17.2437 12.9312L16.0633 11.7508C16.8846 10.8656 17.5694 9.88017 18.0968 8.92439C18.0968 8.92439 17.5665 8.07174 17.1644 7.53644C16.9059 7.19237 16.6341 6.85833 16.3485 6.53639C16.123 6.28252 15.2474 5.42027 15.039 5.24072C13.6411 4.03859 11.9997 3.09533 10.0309 3.1112C9.26845 3.12331 8.53522 3.27363 7.83916 3.52666L6.53347 2.22097V2.22097Z" fill="black" />
    <path fill-rule="evenodd" clip-rule="evenodd" d="M7.07837 7.33851L8.08008 8.33981C8.01453 8.53898 7.97862 8.75193 7.97862 8.97282C7.97862 10.0885 8.88429 10.9942 10 10.9942C10.2209 10.9942 10.4338 10.9587 10.633 10.8927L11.6347 11.8944C11.1512 12.1659 10.5933 12.3204 10 12.3204C8.15232 12.3204 6.65247 10.8205 6.65247 8.97282C6.65247 8.37948 6.80738 7.82204 7.07837 7.33851V7.33851ZM9.9382 5.62613C9.95866 5.62571 9.97954 5.62529 10 5.62529C11.8477 5.62529 13.3475 7.12556 13.3475 8.97282C13.3475 8.9937 13.3475 9.01416 13.3471 9.03462L9.9382 5.62613Z" fill="black" />
</svg>
    