<svg width="20" height="16" viewBox="0 0 20 16" fill="none" xmlns="http://www.w3.org/2000/svg">
    <path fill-rule="evenodd" clip-rule="evenodd" d="M10.1482 9.56709e-05C14.5634 0.0627288 18.1857 4.03241 20 7.44801C20 7.44801 19.3616 8.75453 18.7628 9.59089C18.473 9.9955 18.1682 10.3897 17.8479 10.7709C17.6195 11.0423 17.3836 11.3066 17.1389 11.5634C14.9522 13.86 11.8118 15.5732 8.49555 14.908C4.81147 14.169 1.80634 11.0122 0 7.61712C0 7.61712 0.641363 6.30934 1.24348 5.47423C1.51322 5.09968 1.79632 4.73516 2.09278 4.38149C2.31993 4.1105 2.55543 3.84618 2.79886 3.58939C4.73089 1.5534 7.20991 -0.0141012 10.1482 9.56709e-05ZM10.1328 1.67031C7.67339 1.66113 5.62821 3.03446 4.01019 4.73933C3.79014 4.97108 3.57802 5.20992 3.37258 5.4546C3.10243 5.77696 2.84438 6.10975 2.59844 6.45089C2.3525 6.79161 2.1003 7.22169 1.90029 7.58705C3.49284 10.2632 5.88334 12.6804 8.82417 13.2704C11.5646 13.8203 14.1221 12.3096 15.9293 10.4118C16.1502 10.1801 16.3635 9.9408 16.5698 9.6957C16.8621 9.34788 17.1402 8.98836 17.4045 8.61883C17.6492 8.27685 17.901 7.84594 18.1005 7.48016C16.4479 4.71386 13.6202 1.72459 10.1328 1.67031Z" fill="black" />
    <path fill-rule="evenodd" clip-rule="evenodd" d="M10 4.18482C11.8477 4.18482 13.3479 5.68509 13.3479 7.53235C13.3479 9.38003 11.8477 10.8799 10 10.8799C8.15274 10.8799 6.65247 9.38003 6.65247 7.53235C6.65247 5.68509 8.15274 4.18482 10 4.18482ZM10 5.8588C10.924 5.8588 11.674 6.60872 11.674 7.53235C11.674 8.4564 10.924 9.20633 10 9.20633C9.07637 9.20633 8.32644 8.4564 8.32644 7.53235C8.32644 6.60872 9.07637 5.8588 10 5.8588Z" fill="black" />
</svg>
    