<svg width="17" height="20" viewBox="0 0 17 20" fill="none" xmlns="http://www.w3.org/2000/svg">
    <path d="M12.3719 11.3022L5.77808 11.3022C5.6246 11.3022 5.47263 11.2735 5.33083 11.2176C5.18904 11.1618 5.0602 11.08 4.95168 10.9768C4.84316 10.8736 4.75707 10.7511 4.69834 10.6163C4.6396 10.4815 4.60938 10.337 4.60938 10.1911C4.60938 10.0452 4.6396 9.90071 4.69834 9.76591C4.75707 9.6311 4.84316 9.50861 4.95168 9.40544C5.0602 9.30226 5.18904 9.22042 5.33083 9.16458C5.47263 9.10874 5.6246 9.08 5.77808 9.08L12.3719 9.08L11.0606 7.83333C10.8415 7.62484 10.7184 7.34213 10.7185 7.04738C10.7186 6.75264 10.8419 6.47001 11.0612 6.26167C11.2805 6.05332 11.5779 5.93634 11.8879 5.93644C12.1979 5.93655 12.4952 6.05373 12.7143 6.26222L16.0194 9.40444C16.1285 9.50741 16.2151 9.62988 16.2742 9.7648C16.3332 9.89972 16.3636 10.0444 16.3636 10.1906C16.3636 10.3367 16.3332 10.4814 16.2742 10.6163C16.2151 10.7512 16.1285 10.8737 16.0194 10.9767L12.7155 14.1189C12.4964 14.3274 12.1991 14.4446 11.8891 14.4447C11.579 14.4448 11.2817 14.3278 11.0624 14.1194C10.8431 13.9111 10.7198 13.6285 10.7197 13.3337C10.7196 13.039 10.8426 12.7563 11.0618 12.5478L12.3719 11.3022ZM1.16871 20C0.858755 20 0.561491 19.8829 0.342318 19.6746C0.123142 19.4662 1.14441e-05 19.1836 1.14441e-05 18.8889L1.14441e-05 1.11111C1.14441e-05 0.816425 0.123142 0.53381 0.342318 0.325436C0.561491 0.117062 0.858755 0 1.16871 0C1.47867 0 1.77594 0.117062 1.99511 0.325436C2.21429 0.53381 2.33742 0.816425 2.33742 1.11111L2.33742 18.8889C2.33742 19.1836 2.21429 19.4662 1.99511 19.6746C1.77594 19.8829 1.47867 20 1.16871 20V20Z" fill="#212429" />
</svg>
    